<?xml version="1.0" encoding="utf-8"?>
<!-- Generator: Adobe Illustrator 21.0.2, SVG Export Plug-In . SVG Version: 6.00 Build 0)  -->
<svg version="1.1" id="Layer_1" xmlns="http://www.w3.org/2000/svg" xmlns:xlink="http://www.w3.org/1999/xlink" x="0px" y="0px"
	 width="32px" height="32px" viewBox="0 0 32 32" enable-background="new 0 0 32 32" xml:space="preserve">
<symbol  id="a" viewBox="-16 -16 32 32">
	<g opacity="0">
		<rect x="-16" y="-16" opacity="0.5" fill="#CCCCCC" enable-background="new    " width="32" height="32"/>
		<rect x="-15" y="-15" opacity="0.25" fill="#FF0000" enable-background="new    " width="30" height="30"/>
	</g>
</symbol>
<title>ANZBusinessBlack--Security_32_Icon</title>
<use xlink:href="#a"  width="32" height="32" x="-16" y="-16" transform="matrix(1 0 0 1 16 16)" overflow="visible"/>
<g>
	<g>
		<circle fill="none" stroke="#000000" stroke-linejoin="round" cx="16" cy="19.8" r="0.6"/>
		<line fill="none" stroke="#000000" stroke-linecap="round" stroke-linejoin="round" x1="16" y1="20.4" x2="16" y2="24.2"/>
		<rect x="5.3" y="12.9" fill="none" stroke="#000000" stroke-linejoin="round" width="21.4" height="17.6"/>
		<path fill="none" stroke="#000000" stroke-linejoin="round" d="M22.9,8.4c0-3.8-3.1-6.9-6.9-6.9S9.1,4.6,9.1,8.4v4.4h13.8
			C22.9,12.8,22.9,8.4,22.9,8.4z"/>
	</g>
	<g>
		<circle fill="none" stroke="#004165" stroke-linecap="round" stroke-linejoin="round" cx="16" cy="19.8" r="0.6"/>
		<line fill="none" stroke="#004165" stroke-linecap="round" stroke-linejoin="round" x1="16" y1="20.4" x2="16" y2="24.2"/>
		
			<rect x="5.3" y="12.9" fill="none" stroke="#004165" stroke-linecap="round" stroke-linejoin="round" width="21.4" height="17.6"/>
		<path fill="none" stroke="#004165" stroke-linecap="round" stroke-linejoin="round" d="M22.9,8.4c0-3.8-3.1-6.9-6.9-6.9
			S9.1,4.6,9.1,8.4v4.4h13.8C22.9,12.8,22.9,8.4,22.9,8.4z"/>
	</g>
</g>
</svg>
